<svg xmlns="http://www.w3.org/2000/svg" xmlns:cc="http://web.resource.org/cc/" xmlns:svg="http://www.w3.org/2000/svg" xmlns:xlink="http://www.w3.org/1999/xlink" id="svg17456" width="297mm" height="210mm"><defs id="defs17458"><marker id="Arrow1Lstart" orient="auto" refX="0" refY="0" style="overflow:visible"><path id="path10215" d="M 0.0,0.0 L 5.0,-5.0 L -12.5,0.0 L 5.0,5.0 L 0.0,0.0 z" transform="scale(0.8) translate(12.5,0)" style="fill-rule:evenodd;stroke:#000;stroke-width:1pt;marker-start:none"/></marker><marker id="Arrow1Lend" orient="auto" refX="0" refY="0" style="overflow:visible"><path id="path10218" d="M 0.0,0.0 L 5.0,-5.0 L -12.5,0.0 L 5.0,5.0 L 0.0,0.0 z" transform="scale(0.8) rotate(180) translate(12.5,0)" style="fill-rule:evenodd;stroke:#000;stroke-width:1pt;marker-start:none"/></marker><filter id="filter16368" width="1.051" height="1.239" x="-.025" y="-.12"><feGaussianBlur id="feGaussianBlur16370" stdDeviation="5.975"/></filter><filter id="filter16360" width="1.209" height="1.053" x="-.104" y="-.026"><feGaussianBlur id="feGaussianBlur16362" stdDeviation="5.757"/></filter><filter id="filter16364"><feGaussianBlur id="feGaussianBlur16366" stdDeviation="8.171"/></filter><filter id="filter15383" width="1.053" height="1.205" x="-.027" y="-.103"><feGaussianBlur id="feGaussianBlur15385" stdDeviation="6.231"/></filter><linearGradient id="linearGradient9013"><stop style="stop-color:#0000f1;stop-opacity:1" id="stop9015" offset="0"/><stop style="stop-color:#0000e7;stop-opacity:1" id="stop9017" offset="1"/></linearGradient><linearGradient id="linearGradient3270" x1="100" x2="662.857" y1="179.505" y2="179.505" gradientTransform="translate(-85.176716,-201.15627)" gradientUnits="userSpaceOnUse" xlink:href="#linearGradient9013"/><linearGradient id="linearGradient3293" x1="100" x2="662.857" y1="179.505" y2="179.505" gradientTransform="translate(-85.176716,-201.15627)" gradientUnits="userSpaceOnUse" xlink:href="#linearGradient9013"/></defs><metadata id="metadata17462"/><g id="layer1"><rect id="rect2164" width="562.857" height="145.714" x="14.823" y="-94.508" rx="39.892" ry="39.892" transform="matrix(0.5314768,0,0,0.5314768,61.511991,173.91617)" style="fill:url(#linearGradient3270);fill-opacity:1;fill-rule:evenodd;stroke:none;stroke-width:1px;stroke-linecap:butt;stroke-linejoin:miter;stroke-opacity:1;filter:url(#filter15383)"/><rect id="rect2160" width="408.087" height="525.741" x="169.611" y="68.342" rx="47.145" ry="47.145" transform="matrix(0.5314768,0,0,0.5314768,61.511991,173.91617)" style="fill:#a56f63;fill-opacity:1;fill-rule:evenodd;stroke:none;stroke-width:.97929907px;stroke-linecap:butt;stroke-linejoin:miter;stroke-opacity:1;filter:url(#filter16364)"/><rect id="rect2166" width="132.276" height="525.714" x="14.82" y="68.349" rx="36.265" ry="36.265" transform="matrix(0.5314768,0,0,0.5314768,61.511991,173.91617)" style="fill:#a42ae3;fill-opacity:1;fill-rule:evenodd;stroke:none;stroke-width:.99249059px;stroke-linecap:butt;stroke-linejoin:miter;stroke-opacity:1;filter:url(#filter16360)"/><rect id="rect2168" width="562.887" height="120" x="14.816" y="614.063" rx="43.518" ry="43.518" transform="matrix(0.5314768,0,0,0.5314768,61.511991,173.91617)" style="fill:#d34ba1;fill-opacity:1;fill-rule:evenodd;stroke:none;stroke-width:.98513663px;stroke-linecap:butt;stroke-linejoin:miter;stroke-opacity:1;filter:url(#filter16368)"/><rect id="rect2178" width="335.808" height="471.16" x="50.3" y="108.694" rx="0" ry="0" style="fill:none;fill-rule:evenodd;stroke:#000;stroke-width:1.01408041;stroke-linecap:butt;stroke-linejoin:miter;stroke-miterlimit:4;stroke-dasharray:none;stroke-opacity:1"/><text id="text9029" x="155.088" y="173.568" xml:space="preserve" style="font-size:32.03010941px;font-style:normal;font-weight:400;fill:#fff;fill-opacity:1;stroke:none;stroke-width:1px;stroke-linecap:butt;stroke-linejoin:miter;stroke-opacity:1;font-family:Bitstream Vera Sans"><tspan id="tspan9031" x="155.088" y="173.568">Header</tspan></text><text id="text12917" x="174.857" y="255.694" xml:space="preserve" style="font-size:32.03010941px;font-style:normal;font-variant:normal;font-weight:400;font-stretch:normal;text-align:start;line-height:125%;writing-mode:lr-tb;text-anchor:start;fill:#fff;fill-opacity:1;stroke:none;stroke-width:1px;stroke-linecap:butt;stroke-linejoin:miter;stroke-opacity:1;font-family:Bitstream Vera Sans"><tspan id="tspan18497" x="174.857" y="255.694">Body 1</tspan></text><text id="text12921" x="-389.191" y="113.175" transform="matrix(0,-1,1,0,0,0)" xml:space="preserve" style="font-size:32.03010941px;font-style:normal;font-weight:400;fill:#fff;fill-opacity:1;stroke:none;stroke-width:1px;stroke-linecap:butt;stroke-linejoin:miter;stroke-opacity:1;font-family:Bitstream Vera Sans"><tspan id="tspan12923" x="-389.191" y="113.175">Menu</tspan></text><text id="text12925" x="170.389" y="539.882" xml:space="preserve" style="font-size:32.03010941px;font-style:normal;font-weight:400;fill:#fff;fill-opacity:1;stroke:none;stroke-width:1px;stroke-linecap:butt;stroke-linejoin:miter;stroke-opacity:1;font-family:Bitstream Vera Sans"><tspan id="tspan12927" x="170.389" y="539.882">Footer</tspan></text><text id="text12929" x="54.636" y="100.428" xml:space="preserve" style="font-size:32.03010941px;font-style:normal;font-weight:400;fill:#000;fill-opacity:1;stroke:none;stroke-width:1px;stroke-linecap:butt;stroke-linejoin:miter;stroke-opacity:1;font-family:Bitstream Vera Sans"><tspan id="tspan12931" x="54.636" y="100.428">Template</tspan></text><path style="fill:none;fill-opacity:1;fill-rule:evenodd;stroke:#000;stroke-width:2;stroke-miterlimit:4;stroke-opacity:1" id="rect2193" d="M 371.94791,611.12074 L 22.947911,611.12074 L 22.947911,57.120742 L 418.94791,57.120742 L 418.94791,562.12074"/><path style="fill:#e0cdda;fill-opacity:1;fill-rule:evenodd;stroke:#000;stroke-width:1.95418596;stroke-miterlimit:4;stroke-opacity:1" id="path2208" d="M 417.97082,562.3824 L 372.54218,611.05262 C 380.85914,591.75202 374.67472,574.86832 367.26476,558.18888 C 385.05185,567.20981 390.43537,571.137 417.97082,562.3824 z"/><text id="text3182" x="20.475" y="45.454" xml:space="preserve" style="font-size:32.03010941px;font-style:normal;font-weight:400;fill:#000;fill-opacity:1;stroke:none;stroke-width:1px;stroke-linecap:butt;stroke-linejoin:miter;stroke-opacity:1;font-family:Bitstream Vera Sans"><tspan id="tspan3184" x="20.475" y="45.454">Page 1</tspan></text><rect id="rect3186" width="562.857" height="145.714" x="14.823" y="-94.508" rx="39.892" ry="39.892" transform="matrix(0.5314768,0,0,0.5314768,665.06438,174.33843)" style="fill:url(#linearGradient3293);fill-opacity:1;fill-rule:evenodd;stroke:none;stroke-width:1px;stroke-linecap:butt;stroke-linejoin:miter;stroke-opacity:1;filter:url(#filter15383)"/><rect id="rect3188" width="408.087" height="525.741" x="169.611" y="68.342" rx="47.145" ry="47.145" transform="matrix(0.5314768,0,0,0.5314768,665.06438,174.33843)" style="fill:#d24d31;fill-opacity:1;fill-rule:evenodd;stroke:none;stroke-width:.97929907px;stroke-linecap:butt;stroke-linejoin:miter;stroke-opacity:1;filter:url(#filter16364)"/><rect id="rect3190" width="132.276" height="525.714" x="14.82" y="68.349" rx="36.265" ry="36.265" transform="matrix(0.5314768,0,0,0.5314768,665.06438,174.33843)" style="fill:#a42ae3;fill-opacity:1;fill-rule:evenodd;stroke:none;stroke-width:.99249059px;stroke-linecap:butt;stroke-linejoin:miter;stroke-opacity:1;filter:url(#filter16360)"/><rect id="rect3192" width="562.887" height="120" x="14.816" y="614.063" rx="43.518" ry="43.518" transform="matrix(0.5314768,0,0,0.5314768,665.06438,174.33843)" style="fill:#d34ba1;fill-opacity:1;fill-rule:evenodd;stroke:none;stroke-width:.98513663px;stroke-linecap:butt;stroke-linejoin:miter;stroke-opacity:1;filter:url(#filter16368)"/><rect id="rect3194" width="335.808" height="471.16" x="653.852" y="109.117" rx="0" ry="0" style="fill:none;fill-rule:evenodd;stroke:#000;stroke-width:1.01408041;stroke-linecap:butt;stroke-linejoin:miter;stroke-miterlimit:4;stroke-dasharray:none;stroke-opacity:1"/><text id="text3196" x="758.64" y="173.99" xml:space="preserve" style="font-size:32.03010941px;font-style:normal;font-weight:400;fill:#fff;fill-opacity:1;stroke:none;stroke-width:1px;stroke-linecap:butt;stroke-linejoin:miter;stroke-opacity:1;font-family:Bitstream Vera Sans"><tspan id="tspan3198" x="758.64" y="173.99">Header</tspan></text><text id="text3200" x="811.117" y="352.876" xml:space="preserve" style="font-size:32.03010941px;font-style:normal;font-variant:normal;font-weight:400;font-stretch:normal;text-align:start;line-height:125%;writing-mode:lr-tb;text-anchor:start;fill:#fff;fill-opacity:1;stroke:none;stroke-width:1px;stroke-linecap:butt;stroke-linejoin:miter;stroke-opacity:1;font-family:Bitstream Vera Sans"><tspan id="tspan3314" x="811.117" y="352.876">Body 2</tspan></text><text id="text3204" x="-389.614" y="716.727" transform="matrix(0,-1,1,0,0,0)" xml:space="preserve" style="font-size:32.03010941px;font-style:normal;font-weight:400;fill:#fff;fill-opacity:1;stroke:none;stroke-width:1px;stroke-linecap:butt;stroke-linejoin:miter;stroke-opacity:1;font-family:Bitstream Vera Sans"><tspan id="tspan3206" x="-389.614" y="716.727">Menu</tspan></text><text id="text3208" x="773.942" y="540.305" xml:space="preserve" style="font-size:32.03010941px;font-style:normal;font-weight:400;fill:#fff;fill-opacity:1;stroke:none;stroke-width:1px;stroke-linecap:butt;stroke-linejoin:miter;stroke-opacity:1;font-family:Bitstream Vera Sans"><tspan id="tspan3210" x="773.942" y="540.305">Footer</tspan></text><text id="text3212" x="658.188" y="100.85" xml:space="preserve" style="font-size:32.03010941px;font-style:normal;font-weight:400;fill:#000;fill-opacity:1;stroke:none;stroke-width:1px;stroke-linecap:butt;stroke-linejoin:miter;stroke-opacity:1;font-family:Bitstream Vera Sans"><tspan id="tspan3214" x="658.188" y="100.85">Template</tspan></text><path style="fill:none;fill-opacity:1;fill-rule:evenodd;stroke:#000;stroke-width:2;stroke-miterlimit:4;stroke-opacity:1" id="path3216" d="M 975.5003,611.543 L 626.5003,611.543 L 626.5003,57.543004 L 1022.5003,57.543004 L 1022.5003,562.543"/><path style="fill:#e0cdda;fill-opacity:1;fill-rule:evenodd;stroke:#000;stroke-width:1.95418596;stroke-miterlimit:4;stroke-opacity:1" id="path3218" d="M 1021.5232,562.80466 L 976.09457,611.47488 C 984.41153,592.17428 978.22711,575.29058 970.81715,558.61114 C 988.60424,567.63207 993.98776,571.55926 1021.5232,562.80466 z"/><text id="text3220" x="624.027" y="45.877" xml:space="preserve" style="font-size:32.03010941px;font-style:normal;font-variant:normal;font-weight:400;font-stretch:normal;text-align:start;line-height:125%;writing-mode:lr-tb;text-anchor:start;fill:#000;fill-opacity:1;stroke:none;stroke-width:1px;stroke-linecap:butt;stroke-linejoin:miter;stroke-opacity:1;font-family:Bitstream Vera Sans"><tspan id="tspan3226" x="624.027" y="45.877">Page 2</tspan></text><g id="g7251" transform="translate(-24.530587,0)"><text style="font-size:22.17276764px;font-style:normal;font-variant:normal;font-weight:400;font-stretch:normal;text-align:start;line-height:125%;writing-mode:lr-tb;text-anchor:start;fill:#fff;fill-opacity:1;stroke:none;stroke-width:1px;stroke-linecap:butt;stroke-linejoin:miter;stroke-opacity:1;font-family:Bitstream Vera Sans" id="text4326" x="189.115" y="336.599" xml:space="preserve"><tspan id="tspan4328" x="189.115" y="336.599">Link to Page 2</tspan></text><path id="path4338" d="M 190.79346,343.42822 C 195.47152,343.42822 209.08858,343.42822 218.04967,343.42822 C 225.31799,343.42822 232.58631,343.42822 239.85463,343.42822 C 247.12295,343.42822 254.39128,343.42822 261.6596,343.42822 C 269.38219,343.42822 277.10478,343.42822 284.82738,343.42822 C 292.54997,343.42822 300.27256,343.42822 307.99515,343.42822 C 314.8092,343.42822 321.62326,343.42822 328.43731,343.42822 C 333.88855,343.42822 339.33979,343.42822 344.79103,343.42822" style="fill:none;fill-rule:evenodd;stroke:#fff;stroke-width:2.06220484;stroke-linecap:butt;stroke-linejoin:miter;stroke-miterlimit:4;stroke-dasharray:none;stroke-opacity:1"/></g><path style="opacity:1;fill:#2e54e9;fill-opacity:1;fill-rule:evenodd;stroke:none;stroke-width:1.84306264;stroke-linecap:round;stroke-miterlimit:4;stroke-dasharray:none;stroke-opacity:1" id="rect14612" d="M 596.5625 312.96875 L 596.5625 325.4375 L 322.71875 325.4375 L 322.71875 331.4375 L 596.5625 331.4375 L 596.5625 343.71875 L 623.1875 328.34375 L 596.5625 312.96875 z"/></g></svg>